<svg width="24" height="28" viewBox="0 0 24 28" fill="none" xmlns="http://www.w3.org/2000/svg">
<rect width="24" height="28" rx="4" fill="black"/>
<path d="M14 16.5C15.3807 16.5 16.5 15.3807 16.5 14C16.5 12.6193 15.3807 11.5 14 11.5C12.6193 11.5 11.5 12.6193 11.5 14C11.5 15.3807 12.6193 16.5 14 16.5Z" stroke="white" stroke-width="1.5" stroke-miterlimit="10" stroke-linecap="round" stroke-linejoin="round"/>
<path d="M5.66669 14.7334V13.2667C5.66669 12.4 6.37502 11.6834 7.25002 11.6834C8.75835 11.6834 9.37502 10.6167 8.61669 9.30836C8.18335 8.55836 8.44169 7.58336 9.20002 7.15003L10.6417 6.32503C11.3 5.93336 12.15 6.1667 12.5417 6.82503L12.6334 6.98336C13.3834 8.2917 14.6167 8.2917 15.375 6.98336L15.4667 6.82503C15.8584 6.1667 16.7084 5.93336 17.3667 6.32503L18.8084 7.15003C19.5667 7.58336 19.825 8.55836 19.3917 9.30836C18.6334 10.6167 19.25 11.6834 20.7584 11.6834C21.625 11.6834 22.3417 12.3917 22.3417 13.2667V14.7334C22.3417 15.6 21.6334 16.3167 20.7584 16.3167C19.25 16.3167 18.6334 17.3834 19.3917 18.6917C19.825 19.45 19.5667 20.4167 18.8084 20.85L17.3667 21.675C16.7084 22.0667 15.8584 21.8334 15.4667 21.175L15.375 21.0167C14.625 19.7084 13.3917 19.7084 12.6334 21.0167L12.5417 21.175C12.15 21.8334 11.3 22.0667 10.6417 21.675L9.20002 20.85C8.44169 20.4167 8.18335 19.4417 8.61669 18.6917C9.37502 17.3834 8.75835 16.3167 7.25002 16.3167C6.37502 16.3167 5.66669 15.6 5.66669 14.7334Z" stroke="white" stroke-width="1.5" stroke-miterlimit="10" stroke-linecap="round" stroke-linejoin="round"/>
</svg>
