<svg width="22" height="22" viewBox="0 0 22 22" fill="none" xmlns="http://www.w3.org/2000/svg">
<path d="M21 11.9009C20.8248 13.7963 20.1135 15.6025 18.9493 17.1084C17.785 18.6142 16.216 19.7573 14.4257 20.404C12.6355 21.0506 10.6981 21.174 8.84032 20.7598C6.98251 20.3455 5.28109 19.4108 3.93516 18.0648C2.58923 16.7189 1.65445 15.0175 1.2402 13.1597C0.825954 11.3019 0.949372 9.3645 1.59601 7.57428C2.24266 5.78405 3.38578 4.215 4.89162 3.05074C6.39746 1.88648 8.20374 1.17516 10.0991 1C8.98942 2.50126 8.45544 4.35094 8.59427 6.21263C8.7331 8.07432 9.53553 9.82434 10.8556 11.1444C12.1757 12.4645 13.9257 13.2669 15.7874 13.4057C17.6491 13.5446 19.4987 13.0106 21 11.9009V11.9009Z" stroke="black" stroke-linecap="round" stroke-linejoin="round"/>
</svg>
